<mxfile host="app.diagrams.net" agent="Mozilla/5.0 (Windows NT 10.0; Win64; x64) AppleWebKit/537.36 (KHTML, like Gecko) Chrome/139.0.0.0 Safari/537.36" version="28.1.1">
  <diagram name="Page-1" id="M8RTcY22R98tEaNjQcn6">
    <mxGraphModel grid="1" page="1" gridSize="10" guides="1" tooltips="1" connect="1" arrows="1" fold="1" pageScale="1" pageWidth="850" pageHeight="1100" math="0" shadow="0">
      <root>
        <mxCell id="0" />
        <mxCell id="1" parent="0" />
        <mxCell id="KB9bO64ptxzomG0AEpGW-36" style="edgeStyle=orthogonalEdgeStyle;rounded=0;orthogonalLoop=1;jettySize=auto;html=1;exitX=0.5;exitY=1;exitDx=0;exitDy=0;entryX=0.5;entryY=0;entryDx=0;entryDy=0;" edge="1" parent="1" source="KB9bO64ptxzomG0AEpGW-1" target="KB9bO64ptxzomG0AEpGW-32">
          <mxGeometry relative="1" as="geometry" />
        </mxCell>
        <mxCell id="KB9bO64ptxzomG0AEpGW-1" value="START" style="rounded=0;whiteSpace=wrap;html=1;fillColor=#60a917;fontColor=#ffffff;strokeColor=#2D7600;" vertex="1" parent="1">
          <mxGeometry x="275" y="20" width="90" height="40" as="geometry" />
        </mxCell>
        <mxCell id="KB9bO64ptxzomG0AEpGW-15" style="edgeStyle=orthogonalEdgeStyle;rounded=0;orthogonalLoop=1;jettySize=auto;html=1;exitX=0;exitY=0.5;exitDx=0;exitDy=0;entryX=1;entryY=0.5;entryDx=0;entryDy=0;" edge="1" parent="1" source="KB9bO64ptxzomG0AEpGW-2" target="KB9bO64ptxzomG0AEpGW-14">
          <mxGeometry relative="1" as="geometry" />
        </mxCell>
        <mxCell id="KB9bO64ptxzomG0AEpGW-46" style="edgeStyle=orthogonalEdgeStyle;rounded=0;orthogonalLoop=1;jettySize=auto;html=1;exitX=1;exitY=0.5;exitDx=0;exitDy=0;entryX=0.5;entryY=0;entryDx=0;entryDy=0;" edge="1" parent="1" source="KB9bO64ptxzomG0AEpGW-2" target="KB9bO64ptxzomG0AEpGW-41">
          <mxGeometry relative="1" as="geometry" />
        </mxCell>
        <mxCell id="KB9bO64ptxzomG0AEpGW-2" value="Unsigned?" style="rhombus;whiteSpace=wrap;html=1;fillColor=#6a00ff;fontColor=#ffffff;strokeColor=#3700CC;" vertex="1" parent="1">
          <mxGeometry x="280" y="210" width="80" height="80" as="geometry" />
        </mxCell>
        <mxCell id="KB9bO64ptxzomG0AEpGW-17" style="edgeStyle=orthogonalEdgeStyle;rounded=0;orthogonalLoop=1;jettySize=auto;html=1;exitX=0.5;exitY=1;exitDx=0;exitDy=0;entryX=0.5;entryY=0;entryDx=0;entryDy=0;" edge="1" parent="1" source="KB9bO64ptxzomG0AEpGW-14" target="KB9bO64ptxzomG0AEpGW-16">
          <mxGeometry relative="1" as="geometry" />
        </mxCell>
        <mxCell id="KB9bO64ptxzomG0AEpGW-14" value="2&#39;s COMP" style="rounded=0;whiteSpace=wrap;html=1;fillColor=#0050ef;fontColor=#ffffff;strokeColor=#001DBC;" vertex="1" parent="1">
          <mxGeometry x="140" y="230" width="90" height="40" as="geometry" />
        </mxCell>
        <mxCell id="KB9bO64ptxzomG0AEpGW-20" style="edgeStyle=orthogonalEdgeStyle;rounded=0;orthogonalLoop=1;jettySize=auto;html=1;exitX=1;exitY=0.5;exitDx=0;exitDy=0;" edge="1" parent="1" source="KB9bO64ptxzomG0AEpGW-16" target="KB9bO64ptxzomG0AEpGW-18">
          <mxGeometry relative="1" as="geometry" />
        </mxCell>
        <mxCell id="KB9bO64ptxzomG0AEpGW-21" style="edgeStyle=orthogonalEdgeStyle;rounded=0;orthogonalLoop=1;jettySize=auto;html=1;exitX=0;exitY=0.5;exitDx=0;exitDy=0;entryX=0.5;entryY=0;entryDx=0;entryDy=0;" edge="1" parent="1" source="KB9bO64ptxzomG0AEpGW-16" target="KB9bO64ptxzomG0AEpGW-19">
          <mxGeometry relative="1" as="geometry" />
        </mxCell>
        <mxCell id="KB9bO64ptxzomG0AEpGW-16" value="Power of 2?" style="rhombus;whiteSpace=wrap;html=1;fillColor=#6a00ff;fontColor=#ffffff;strokeColor=#3700CC;" vertex="1" parent="1">
          <mxGeometry x="145" y="300" width="80" height="80" as="geometry" />
        </mxCell>
        <mxCell id="KB9bO64ptxzomG0AEpGW-28" style="edgeStyle=orthogonalEdgeStyle;rounded=0;orthogonalLoop=1;jettySize=auto;html=1;exitX=0.5;exitY=1;exitDx=0;exitDy=0;entryX=0.5;entryY=0;entryDx=0;entryDy=0;" edge="1" parent="1" source="KB9bO64ptxzomG0AEpGW-18" target="KB9bO64ptxzomG0AEpGW-27">
          <mxGeometry relative="1" as="geometry" />
        </mxCell>
        <mxCell id="KB9bO64ptxzomG0AEpGW-18" value="DIV" style="rounded=0;whiteSpace=wrap;html=1;fillColor=#0050ef;fontColor=#ffffff;strokeColor=#001DBC;" vertex="1" parent="1">
          <mxGeometry x="230" y="390" width="90" height="40" as="geometry" />
        </mxCell>
        <mxCell id="KB9bO64ptxzomG0AEpGW-29" style="edgeStyle=orthogonalEdgeStyle;rounded=0;orthogonalLoop=1;jettySize=auto;html=1;exitX=0.5;exitY=1;exitDx=0;exitDy=0;entryX=0.5;entryY=0;entryDx=0;entryDy=0;" edge="1" parent="1" source="KB9bO64ptxzomG0AEpGW-19" target="KB9bO64ptxzomG0AEpGW-27">
          <mxGeometry relative="1" as="geometry" />
        </mxCell>
        <mxCell id="KB9bO64ptxzomG0AEpGW-19" value="SHIFT" style="rounded=0;whiteSpace=wrap;html=1;fillColor=#0050ef;fontColor=#ffffff;strokeColor=#001DBC;" vertex="1" parent="1">
          <mxGeometry x="50" y="390" width="90" height="40" as="geometry" />
        </mxCell>
        <mxCell id="KB9bO64ptxzomG0AEpGW-22" value="No" style="text;html=1;align=center;verticalAlign=middle;whiteSpace=wrap;rounded=0;" vertex="1" parent="1">
          <mxGeometry x="220" y="310" width="60" height="30" as="geometry" />
        </mxCell>
        <mxCell id="KB9bO64ptxzomG0AEpGW-23" value="Yes" style="text;html=1;align=center;verticalAlign=middle;whiteSpace=wrap;rounded=0;" vertex="1" parent="1">
          <mxGeometry x="90" y="310" width="60" height="30" as="geometry" />
        </mxCell>
        <mxCell id="KB9bO64ptxzomG0AEpGW-50" style="edgeStyle=orthogonalEdgeStyle;rounded=0;orthogonalLoop=1;jettySize=auto;html=1;exitX=0.5;exitY=1;exitDx=0;exitDy=0;" edge="1" parent="1" source="KB9bO64ptxzomG0AEpGW-27" target="KB9bO64ptxzomG0AEpGW-49">
          <mxGeometry relative="1" as="geometry" />
        </mxCell>
        <mxCell id="KB9bO64ptxzomG0AEpGW-27" value="2&#39;s COMP" style="rounded=0;whiteSpace=wrap;html=1;fillColor=#0050ef;fontColor=#ffffff;strokeColor=#001DBC;" vertex="1" parent="1">
          <mxGeometry x="140" y="470" width="90" height="40" as="geometry" />
        </mxCell>
        <mxCell id="KB9bO64ptxzomG0AEpGW-34" style="edgeStyle=orthogonalEdgeStyle;rounded=0;orthogonalLoop=1;jettySize=auto;html=1;exitX=0.5;exitY=1;exitDx=0;exitDy=0;entryX=0.5;entryY=0;entryDx=0;entryDy=0;" edge="1" parent="1" source="KB9bO64ptxzomG0AEpGW-32" target="KB9bO64ptxzomG0AEpGW-2">
          <mxGeometry relative="1" as="geometry" />
        </mxCell>
        <mxCell id="KB9bO64ptxzomG0AEpGW-38" style="edgeStyle=orthogonalEdgeStyle;rounded=0;orthogonalLoop=1;jettySize=auto;html=1;exitX=1;exitY=0.5;exitDx=0;exitDy=0;entryX=0;entryY=0.5;entryDx=0;entryDy=0;" edge="1" parent="1" source="KB9bO64ptxzomG0AEpGW-32" target="KB9bO64ptxzomG0AEpGW-37">
          <mxGeometry relative="1" as="geometry" />
        </mxCell>
        <mxCell id="KB9bO64ptxzomG0AEpGW-32" value="D = 0?" style="rhombus;whiteSpace=wrap;html=1;fillColor=#6a00ff;fontColor=#ffffff;strokeColor=#3700CC;" vertex="1" parent="1">
          <mxGeometry x="280" y="90" width="80" height="80" as="geometry" />
        </mxCell>
        <mxCell id="KB9bO64ptxzomG0AEpGW-35" value="No" style="text;html=1;align=center;verticalAlign=middle;whiteSpace=wrap;rounded=0;" vertex="1" parent="1">
          <mxGeometry x="275" y="170" width="60" height="30" as="geometry" />
        </mxCell>
        <mxCell id="KB9bO64ptxzomG0AEpGW-37" value="STOP&lt;div&gt;Q = &#39;1&lt;/div&gt;&lt;div&gt;R = N&lt;/div&gt;" style="rounded=0;whiteSpace=wrap;html=1;fillColor=#60a917;fontColor=#ffffff;strokeColor=#2D7600;" vertex="1" parent="1">
          <mxGeometry x="420" y="105" width="100" height="50" as="geometry" />
        </mxCell>
        <mxCell id="KB9bO64ptxzomG0AEpGW-39" style="edgeStyle=orthogonalEdgeStyle;rounded=0;orthogonalLoop=1;jettySize=auto;html=1;exitX=1;exitY=0.5;exitDx=0;exitDy=0;" edge="1" parent="1" source="KB9bO64ptxzomG0AEpGW-41" target="KB9bO64ptxzomG0AEpGW-42">
          <mxGeometry relative="1" as="geometry" />
        </mxCell>
        <mxCell id="KB9bO64ptxzomG0AEpGW-40" style="edgeStyle=orthogonalEdgeStyle;rounded=0;orthogonalLoop=1;jettySize=auto;html=1;exitX=0;exitY=0.5;exitDx=0;exitDy=0;entryX=0.5;entryY=0;entryDx=0;entryDy=0;" edge="1" parent="1" source="KB9bO64ptxzomG0AEpGW-41" target="KB9bO64ptxzomG0AEpGW-43">
          <mxGeometry relative="1" as="geometry" />
        </mxCell>
        <mxCell id="KB9bO64ptxzomG0AEpGW-41" value="Power of 2?" style="rhombus;whiteSpace=wrap;html=1;fillColor=#6a00ff;fontColor=#ffffff;strokeColor=#3700CC;" vertex="1" parent="1">
          <mxGeometry x="430" y="300" width="80" height="80" as="geometry" />
        </mxCell>
        <mxCell id="KB9bO64ptxzomG0AEpGW-52" style="edgeStyle=orthogonalEdgeStyle;rounded=0;orthogonalLoop=1;jettySize=auto;html=1;exitX=0.5;exitY=1;exitDx=0;exitDy=0;entryX=1;entryY=0.5;entryDx=0;entryDy=0;" edge="1" parent="1" source="KB9bO64ptxzomG0AEpGW-42" target="KB9bO64ptxzomG0AEpGW-49">
          <mxGeometry relative="1" as="geometry" />
        </mxCell>
        <mxCell id="KB9bO64ptxzomG0AEpGW-42" value="DIV" style="rounded=0;whiteSpace=wrap;html=1;fillColor=#0050ef;fontColor=#ffffff;strokeColor=#001DBC;" vertex="1" parent="1">
          <mxGeometry x="515" y="390" width="90" height="40" as="geometry" />
        </mxCell>
        <mxCell id="KB9bO64ptxzomG0AEpGW-51" style="edgeStyle=orthogonalEdgeStyle;rounded=0;orthogonalLoop=1;jettySize=auto;html=1;exitX=0.5;exitY=1;exitDx=0;exitDy=0;entryX=0.5;entryY=0;entryDx=0;entryDy=0;" edge="1" parent="1" source="KB9bO64ptxzomG0AEpGW-43" target="KB9bO64ptxzomG0AEpGW-49">
          <mxGeometry relative="1" as="geometry" />
        </mxCell>
        <mxCell id="KB9bO64ptxzomG0AEpGW-43" value="SHIFT" style="rounded=0;whiteSpace=wrap;html=1;fillColor=#0050ef;fontColor=#ffffff;strokeColor=#001DBC;" vertex="1" parent="1">
          <mxGeometry x="335" y="390" width="90" height="40" as="geometry" />
        </mxCell>
        <mxCell id="KB9bO64ptxzomG0AEpGW-44" value="No" style="text;html=1;align=center;verticalAlign=middle;whiteSpace=wrap;rounded=0;" vertex="1" parent="1">
          <mxGeometry x="505" y="310" width="60" height="30" as="geometry" />
        </mxCell>
        <mxCell id="KB9bO64ptxzomG0AEpGW-45" value="Yes" style="text;html=1;align=center;verticalAlign=middle;whiteSpace=wrap;rounded=0;" vertex="1" parent="1">
          <mxGeometry x="375" y="310" width="60" height="30" as="geometry" />
        </mxCell>
        <mxCell id="KB9bO64ptxzomG0AEpGW-47" value="Yes" style="text;html=1;align=center;verticalAlign=middle;whiteSpace=wrap;rounded=0;" vertex="1" parent="1">
          <mxGeometry x="395" y="220" width="60" height="30" as="geometry" />
        </mxCell>
        <mxCell id="KB9bO64ptxzomG0AEpGW-48" value="No" style="text;html=1;align=center;verticalAlign=middle;whiteSpace=wrap;rounded=0;" vertex="1" parent="1">
          <mxGeometry x="230" y="220" width="60" height="30" as="geometry" />
        </mxCell>
        <mxCell id="KB9bO64ptxzomG0AEpGW-55" style="edgeStyle=orthogonalEdgeStyle;rounded=0;orthogonalLoop=1;jettySize=auto;html=1;exitX=0.5;exitY=1;exitDx=0;exitDy=0;entryX=0.5;entryY=0;entryDx=0;entryDy=0;" edge="1" parent="1" source="KB9bO64ptxzomG0AEpGW-49" target="KB9bO64ptxzomG0AEpGW-54">
          <mxGeometry relative="1" as="geometry" />
        </mxCell>
        <mxCell id="KB9bO64ptxzomG0AEpGW-56" style="edgeStyle=orthogonalEdgeStyle;rounded=0;orthogonalLoop=1;jettySize=auto;html=1;exitX=0.5;exitY=1;exitDx=0;exitDy=0;entryX=0.5;entryY=0;entryDx=0;entryDy=0;" edge="1" parent="1" source="KB9bO64ptxzomG0AEpGW-49" target="KB9bO64ptxzomG0AEpGW-53">
          <mxGeometry relative="1" as="geometry" />
        </mxCell>
        <mxCell id="KB9bO64ptxzomG0AEpGW-49" value="Q?" style="rhombus;whiteSpace=wrap;html=1;fillColor=#6a00ff;fontColor=#ffffff;strokeColor=#3700CC;" vertex="1" parent="1">
          <mxGeometry x="340" y="490" width="80" height="80" as="geometry" />
        </mxCell>
        <mxCell id="KB9bO64ptxzomG0AEpGW-53" value="STOP&lt;div&gt;Out: Q&lt;/div&gt;" style="rounded=0;whiteSpace=wrap;html=1;fillColor=#60a917;fontColor=#ffffff;strokeColor=#2D7600;" vertex="1" parent="1">
          <mxGeometry x="270" y="610" width="90" height="40" as="geometry" />
        </mxCell>
        <mxCell id="KB9bO64ptxzomG0AEpGW-54" value="STOP&lt;div&gt;Out: R&lt;/div&gt;" style="rounded=0;whiteSpace=wrap;html=1;fillColor=#60a917;fontColor=#ffffff;strokeColor=#2D7600;" vertex="1" parent="1">
          <mxGeometry x="400" y="610" width="90" height="40" as="geometry" />
        </mxCell>
        <mxCell id="KB9bO64ptxzomG0AEpGW-57" value="Yes" style="text;html=1;align=center;verticalAlign=middle;whiteSpace=wrap;rounded=0;" vertex="1" parent="1">
          <mxGeometry x="300" y="560" width="60" height="30" as="geometry" />
        </mxCell>
        <mxCell id="KB9bO64ptxzomG0AEpGW-58" value="No" style="text;html=1;align=center;verticalAlign=middle;whiteSpace=wrap;rounded=0;" vertex="1" parent="1">
          <mxGeometry x="395" y="560" width="60" height="30" as="geometry" />
        </mxCell>
        <mxCell id="KB9bO64ptxzomG0AEpGW-60" value="Yes" style="text;html=1;align=center;verticalAlign=middle;whiteSpace=wrap;rounded=0;" vertex="1" parent="1">
          <mxGeometry x="365" y="100" width="60" height="30" as="geometry" />
        </mxCell>
      </root>
    </mxGraphModel>
  </diagram>
</mxfile>
